Coordinates
version=1
nRows=25
nColumns=28
inDegrees=yes

Units are S.I. units (second, meters, Newtons, ...)
Angles are in degrees.

endheader
time	pelvis_tilt	pelvis_list	pelvis_rotation	pelvis_tx	pelvis_ty	pelvis_tz	hip_flexion_r	hip_adduction_r	hip_rotation_r	knee_angle_r	ankle_angle_r	subtalar_angle_r	mtp_angle_r	hip_flexion_l	hip_adduction_l	hip_rotation_l	knee_angle_l	socket_flexion	socket_adduction	socket_rotation	socket_tx	socket_ty	socket_tz	foot_flex	lumbar_extension	lumbar_bending	lumbar_rotation
      0.32500000	      3.75516092	     -3.24516792	     -6.13904507	     -0.42314770	      1.01784905	      0.29262040	     12.09488052	      5.14757604	      3.56549651	    -64.66028068	     -3.41341670	    -20.45176941	     25.74377446	     -1.64456264	     -1.48329805	     -4.30265760	     -8.66755736	     -4.18438892	     -0.29853942	     13.11464532	      0.00000000	     -0.01054635	      0.00000000	      1.47499672	    -12.60669165	     -0.87742381	      6.60853919
      0.32916667	      3.81485237	     -3.24138446	     -6.06217517	     -0.41859194	      1.01825054	      0.29219259	     12.62720715	      5.19874410	      3.57325107	    -64.39481711	     -3.36940415	    -20.42301352	     25.75666025	     -1.98804039	     -1.42431478	     -4.29000408	     -8.69875974	     -4.27214573	     -0.31175095	     13.13987250	      0.00000000	     -0.01027699	      0.00000000	      1.52301012	    -12.70436172	     -0.86774204	      6.59766665
      0.33333333	      3.85866466	     -3.33991194	     -5.92913809	     -0.41378898	      1.01863822	      0.29174605	     13.07363060	      5.36940016	      3.57362060	    -63.99560620	     -2.90411509	    -20.10536005	     25.93459714	     -2.39556616	     -1.49506059	     -4.29952747	     -8.55975076	     -4.22380016	     -0.31264856	     13.31417974	      0.00000000	     -0.01009091	      0.00000000	      1.82289466	    -12.75525122	     -0.70121618	      6.43192335
      0.33750000	      3.91028454	     -3.34728545	     -5.86147939	     -0.40924593	      1.01891732	      0.29132820	     13.60498686	      5.42088058	      3.56798286	    -63.69405686	     -2.83394323	    -20.07555783	     25.95141304	     -2.73737178	     -1.44943070	     -4.29985002	     -8.58126067	     -4.31219024	     -0.31655407	     13.33836565	      0.00000000	     -0.00993718	      0.00000000	      1.83369551	    -12.85565010	     -0.68877588	      6.41153023
      0.34166667	      4.13189556	     -3.59119398	     -5.73459764	     -0.40413826	      1.01946319	      0.29063233	     13.76873596	      5.64152307	      3.50123602	    -63.17080858	     -1.81747292	    -18.48466569	     26.50992465	     -3.58200926	     -1.62008541	     -4.37415061	     -7.84185256	     -3.93929224	     -0.23940200	     13.53697988	      0.00000000	     -0.01013404	      0.00000000	      1.94619637	    -13.09894961	     -0.29421821	      5.91711974
      0.34583333	      4.17870477	     -3.58437027	     -5.66680340	     -0.39965430	      1.01966656	      0.29028508	     14.29092302	      5.68191017	      3.50988874	    -62.81851318	     -1.74914337	    -18.49215013	     26.51503517	     -3.91026188	     -1.56791545	     -4.35789181	     -7.86993809	     -4.02712202	     -0.25163623	     13.56465740	      0.00000000	     -0.00997171	      0.00000000	      1.98653114	    -13.19222079	     -0.29852987	      5.91196503
      0.35000000	      4.19621447	     -3.76091053	     -5.50270449	     -0.39469874	      1.01992868	      0.28980753	     14.67014930	      5.92763115	      3.47458276	    -62.23468814	     -1.13122589	    -18.39248838	     26.62379696	     -4.34407016	     -1.72923396	     -4.38458856	     -7.61117030	     -3.92498177	     -0.22986944	     13.77023658	      0.00000000	     -0.00998468	      0.00000000	      2.15466022	    -13.19506184	     -0.03712068	      5.73018934
      0.35416667	      4.23934895	     -3.75661848	     -5.43938530	     -0.39028589	      1.02008554	      0.28945733	     15.18186807	      5.96333523	      3.48912968	    -61.82736934	     -1.06783437	    -18.38606630	     26.62547033	     -4.66465726	     -1.68120512	     -4.37398724	     -7.63355309	     -4.00223662	     -0.24248953	     13.79990530	      0.00000000	     -0.00984791	      0.00000000	      2.20369541	    -13.29314288	     -0.04117927	      5.71455216
      0.35833333	      4.25256076	     -3.78994302	     -5.29500943	     -0.38546522	      1.02038083	      0.28908784	     15.55877571	      6.07105403	      3.53380565	    -61.17262988	     -0.81606594	    -18.34998340	     26.64833571	     -5.00321450	     -1.68906885	     -4.37236921	     -7.56820479	     -4.01413437	     -0.25656671	     13.92421266	      0.00000000	     -0.00955124	      0.00000000	      2.37579173	    -13.29176092	      0.02298228	      5.63115999
      0.36250000	      4.31015712	     -4.05530013	     -5.14782113	     -0.38061382	      1.02049162	      0.28860528	     15.90044221	      6.36944894	      3.43092972	    -60.56676899	     -0.26437971	    -18.14739211	     26.68719911	     -5.51582895	     -1.95025071	     -4.48156945	     -7.23425382	     -3.88423682	     -0.22293852	     14.20208545	      0.00000000	     -0.00985081	      0.00000000	      2.50188270	    -13.37753757	      0.40881991	      5.31879721
      0.36666667	      4.34014325	     -4.03838371	     -5.10186383	     -0.37624462	      1.02052388	      0.28832648	     16.39906201	      6.39178061	      3.44215149	    -60.09914615	     -0.20737122	    -18.14109507	     26.68051756	     -5.82258582	     -1.89130769	     -4.47314523	     -7.25417682	     -3.95987371	     -0.23658160	     14.22809526	      0.00000000	     -0.00977497	      0.00000000	      2.54412371	    -13.49584755	      0.39314442	      5.30376029
      0.37083333	      4.68240135	     -4.24119165	     -4.94965770	     -0.37129613	      1.02122678	      0.28783990	     16.30974809	      6.61729442	      3.46625334	    -59.26590939	      0.35264256	    -17.66974903	     26.16341563	     -6.82637953	     -2.02635056	     -4.44320633	     -6.37827135	     -3.50249591	     -0.11496925	     14.30052531	      0.00000000	     -0.00967504	      0.00000000	      2.69752850	    -13.86542267	      0.65471950	      5.06579566
      0.37500000	      4.69791729	     -4.22100840	     -4.90848663	     -0.36700470	      1.02116221	      0.28759854	     16.81849074	      6.63179911	      3.47181970	    -58.77227774	      0.41698131	    -17.68135933	     26.15619772	     -7.11090075	     -1.97055840	     -4.43316145	     -6.40142231	     -3.57792114	     -0.13308412	     14.32821404	      0.00000000	     -0.00963285	      0.00000000	      2.74851629	    -13.97868405	      0.63788734	      5.05638613
      0.37916667	      4.64795252	     -4.37503478	     -4.70573361	     -0.36201782	      1.02125074	      0.28714798	     17.15076203	      6.83711094	      3.44489827	    -57.91571458	      0.78098561	    -17.74067182	     26.05377552	     -7.44249902	     -2.13203469	     -4.46690960	     -6.20697102	     -3.50599837	     -0.13091786	     14.54643093	      0.00000000	     -0.00956902	      0.00000000	      2.92430972	    -13.86824458	      0.86291994	      4.84832925
      0.38333333	      4.66170012	     -4.34664520	     -4.66086347	     -0.35780749	      1.02112696	      0.28690579	     17.64270094	      6.83855959	      3.45994833	    -57.36733790	      0.84491795	    -17.75100524	     26.03892333	     -7.71548934	     -2.07224231	     -4.45983737	     -6.23034932	     -3.56653615	     -0.13871913	     14.57815798	      0.00000000	     -0.00956331	      0.00000000	      2.97560507	    -13.99454295	      0.84481298	      4.83553188
      0.38750000	      4.64915522	     -4.33276272	     -4.49296280	     -0.35307444	      1.02128349	      0.28656549	     17.94687678	      6.87821220	      3.53297439	    -56.48859046	      1.01811141	    -17.78406505	     25.98913363	     -8.00250265	     -2.04744851	     -4.44047741	     -6.18856096	     -3.58290572	     -0.15434883	     14.70635738	      0.00000000	     -0.00920256	      0.00000000	      3.13985197	    -13.95034219	      0.83724911	      4.76940845
      0.39166667	      4.64066595	     -4.34665119	     -4.37048707	     -0.34857422	      1.02127772	      0.28623543	     18.31719229	      6.92136161	      3.54097548	    -55.70642132	      1.17905580	    -17.82626545	     25.92990796	     -8.28547936	     -2.04509323	     -4.45352530	     -6.14364309	     -3.58389565	     -0.16927842	     14.81566176	      0.00000000	     -0.00907602	      0.00000000	      3.25354005	    -13.98594478	      0.87727178	      4.69045455
      0.39583333	      4.63163017	     -4.35489283	     -4.25501949	     -0.34410599	      1.02120213	      0.28590365	     18.68945962	      6.95112647	      3.55306456	    -54.92087837	      1.32189323	    -17.86933264	     25.86703860	     -8.56664170	     -2.03827401	     -4.46555328	     -6.10273204	     -3.59091072	     -0.18266300	     14.91888417	      0.00000000	     -0.00899276	      0.00000000	      3.35579757	    -14.02892248	      0.90658685	      4.61447886
      0.40000000	      4.67795023	     -4.64036438	     -4.05254875	     -0.33927757	      1.02123528	      0.28546047	     18.87015240	      7.26434962	      3.43788551	    -53.96195598	      1.54881091	    -18.06582349	     25.39333677	     -9.05864886	     -2.34682389	     -4.53415162	     -5.75610174	     -3.44598332	     -0.13065503	     15.19984597	      0.00000000	     -0.00926877	      0.00000000	      3.47664417	    -14.10477850	      1.32932137	      4.20008968
      0.40416667	      4.66969866	     -4.57833347	     -3.96974645	     -0.33496558	      1.02112824	      0.28518886	     19.24181606	      7.22153585	      3.48926471	    -53.14710660	      1.62499240	    -18.09470879	     25.32406104	     -9.30772605	     -2.25414393	     -4.52906024	     -5.76384616	     -3.46772276	     -0.15504391	     15.22514443	      0.00000000	     -0.00910520	      0.00000000	      3.56697600	    -14.16755094	      1.25582225	      4.19072289
      0.40833333	      4.65284436	     -4.53008560	     -3.87299845	     -0.33053713	      1.02103265	      0.28494408	     19.58007883	      7.19405127	      3.53354219	    -52.27586027	      1.71645566	    -18.14317097	     25.23315671	     -9.56599044	     -2.18993567	     -4.50247062	     -5.74694446	     -3.48235613	     -0.17203893	     15.30327070	      0.00000000	     -0.00891446	      0.00000000	      3.68245859	    -14.19197021	      1.19767608	      4.16173646
      0.41250000	      4.62340203	     -4.48122101	     -3.76220072	     -0.32612212	      1.02091017	      0.28467424	     19.91502649	      7.16646168	      3.56422251	    -51.37422035	      1.80760637	    -18.19953957	     25.14137224	     -9.80653231	     -2.12380488	     -4.50144189	     -5.72451340	     -3.48831833	     -0.19023830	     15.37085216	      0.00000000	     -0.00874169	      0.00000000	      3.78863977	    -14.21779638	      1.15767509	      4.12493217
      0.41666667	      4.58897584	     -4.45458410	     -3.64958836	     -0.32165439	      1.02077093	      0.28441967	     20.22380411	      7.15763069	      3.59237719	    -50.42501167	      1.89197592	    -18.28027137	     25.01380999	    -10.05530535	     -2.08963433	     -4.47536962	     -5.68116952	     -3.48589743	     -0.20394340	     15.47937931	      0.00000000	     -0.00860150	      0.00000000	      3.90859809	    -14.21429850	      1.13219724	      4.06468756
      0.42083333	      4.62184095	     -4.66304829	     -3.50920604	     -0.31716264	      1.02073768	      0.28428751	     20.37707276	      7.46648435	      3.63855232	    -49.37051279	      2.12836209	    -18.80419264	     22.27454205	    -10.65352686	     -2.30411906	     -4.15600962	     -4.87639329	     -3.01310796	     -0.03100159	     15.27922951	      0.00000000	     -0.00880987	      0.00000000	      4.01859016	    -14.32265386	      1.40015724	      3.84473639
      0.42500000	      4.57148022	     -4.57557372	     -3.42558909	     -0.31278039	      1.02052342	      0.28404023	     20.69999482	      7.38529161	      3.68174018	    -48.40744221	      2.21569523	    -18.81508298	     22.24794151	    -10.85133365	     -2.19290767	     -4.16300919	     -4.89669022	     -3.02741621	     -0.05625996	     15.31747320	      0.00000000	     -0.00862242	      0.00000000	      4.10758577	    -14.32511764	      1.31313193	      3.83187541
